<?xml version="1.0" encoding="iso-8859-1"?>
<!-- Generator: Adobe Illustrator 19.0.0, SVG Export Plug-In . SVG Version: 6.00 Build 0)  -->
<svg version="1.1" id="Capa_1" xmlns="http://www.w3.org/2000/svg" xmlns:xlink="http://www.w3.org/1999/xlink" x="0px" y="0px"
	 viewBox="0 0 511.975 511.975" style="enable-background:new 0 0 511.975 511.975;" xml:space="preserve">
<g>
	<g>
		<path d="M323.825,110.785c-33.504-0.672-65.408,8.256-93.888,27.552c-27.52,18.368-49.792,42.464-70.912,67.712
			c-2.752,3.456-4.8,7.808-5.952,11.936c-5.28,18.336,2.528,37.856,18.848,47.904c15.84,9.888,34.656,8.512,49.12-4.576
			c14.912-13.568,29.376-28,43.84-42.016c14.912-14.464,32.576-22.496,53.696-22.944c38.112-1.152,66.112,15.392,82.624,49.344
			c15.616,32.352,12.384,63.808-10.784,92.032c-10.112,12.416-21.6,23.872-32.832,35.584c-22.976,23.424-45.92,46.816-68.864,70.24
			c-8.032,8.032-11.008,17.92-9.632,28.928c2.048,17.216,11.232,29.824,27.296,36.256c16.064,6.432,31.232,3.2,43.616-8.96
			c33.984-33.728,68.16-67.232,101.216-101.664c27.072-28.224,41.312-63.104,44.288-101.888
			C502.833,200.769,426.865,109.857,323.825,110.785z"/>
	</g>
</g>
<g>
	<g>
		<path d="M338.225,245.057c-15.616-8.96-33.28-7.136-47.744,5.952c-15.136,13.792-29.376,28-43.84,42.016
			c-15.136,14.464-33.024,21.344-53.92,22.496c-63.104,3.2-103.968-59.456-87.2-112.96c5.056-16.288,15.136-28.896,26.624-40.608
			c28.48-29.376,57.376-58.752,86.08-88.128c4.576-4.8,9.408-10.08,11.936-16.064c6.88-15.584,1.152-36.032-11.936-47.04
			c-15.168-12.608-32.16-14.24-48.672-4.128c-4.352,2.752-8.48,5.728-12.16,9.408c-33.28,33.28-67.264,66.112-99.392,100.544
			c-25.472,27.296-38.56,61.28-41.536,98.688c-7.328,95.232,69.536,186.368,170.304,185.664
			c33.952-0.224,66.112-7.584,94.528-26.848c27.296-18.592,49.792-42.688,70.912-67.712c3.68-4.352,6.208-10.56,7.36-16.288
			C363.025,271.681,354.289,254.017,338.225,245.057z"/>
	</g>
</g>
<g>
</g>
<g>
</g>
<g>
</g>
<g>
</g>
<g>
</g>
<g>
</g>
<g>
</g>
<g>
</g>
<g>
</g>
<g>
</g>
<g>
</g>
<g>
</g>
<g>
</g>
<g>
</g>
<g>
</g>
</svg>
